<svg width="50" height="50" viewBox="0 0 50 50" fill="none" xmlns="http://www.w3.org/2000/svg">
<g clip-path="url(#clip0_113_37)">
<path d="M0 5.87656V4.16667C0 3.0616 0.32924 2.00179 0.915291 1.22039C1.50134 0.438987 2.2962 0 3.125 0L46.875 0C47.7038 0 48.4987 0.438987 49.0847 1.22039C49.6708 2.00179 50 3.0616 50 4.16667V5.87656L25 26.7099L0 5.87656ZM25.8281 30.9339C25.5797 31.1406 25.2928 31.2502 25 31.2502C24.7072 31.2502 24.4203 31.1406 24.1719 30.9339L0 10.7901V45.8333C0 46.9384 0.32924 47.9982 0.915291 48.7796C1.50134 49.561 2.2962 50 3.125 50H46.875C47.7038 50 48.4987 49.561 49.0847 48.7796C49.6708 47.9982 50 46.9384 50 45.8333V10.7901L25.8281 30.9339Z" fill="#151612"/>
</g>
<defs>
<clipPath id="clip0_113_37">
<rect width="50" height="50" fill="white"/>
</clipPath>
</defs>
</svg>
