<svg width="42" height="43" viewBox="0 0 42 43" fill="none" xmlns="http://www.w3.org/2000/svg">
<path d="M21 16.3332C19.9782 16.3332 18.9792 16.6362 18.1296 17.2039C17.2799 17.7716 16.6177 18.5786 16.2266 19.5226C15.8356 20.4667 15.7333 21.5056 15.9326 22.5078C16.132 23.51 16.6241 24.4307 17.3466 25.1532C18.0692 25.8758 18.9898 26.3679 19.9921 26.5672C20.9943 26.7666 22.0331 26.6643 22.9772 26.2732C23.9213 25.8822 24.7282 25.2199 25.2959 24.3703C25.8637 23.5206 26.1667 22.5217 26.1667 21.4998C26.1667 20.8213 26.0331 20.1495 25.7734 19.5226C25.5138 18.8958 25.1332 18.3262 24.6534 17.8465C24.1736 17.3667 23.6041 16.9861 22.9772 16.7265C22.3504 16.4668 21.6785 16.3332 21 16.3332ZM41.6875 11.229C41.6766 9.62017 41.3803 8.02603 40.8125 6.52067C40.3944 5.41913 39.7474 4.41878 38.9142 3.58564C38.0811 2.7525 37.0807 2.1055 35.9792 1.68734C34.4738 1.11955 32.8797 0.823297 31.2709 0.812337C28.5834 0.666504 27.7917 0.666504 21 0.666504C14.2084 0.666504 13.4167 0.666504 10.7292 0.812337C9.12035 0.823297 7.52621 1.11955 6.02085 1.68734C4.91931 2.1055 3.91897 2.7525 3.08582 3.58564C2.25268 4.41878 1.60568 5.41913 1.18752 6.52067C0.619737 8.02603 0.323481 9.62017 0.31252 11.229C0.166687 13.9165 0.166687 14.7082 0.166687 21.4998C0.166687 28.2915 0.166687 29.0832 0.31252 31.7707C0.334945 33.3852 0.6308 34.9842 1.18752 36.4998C1.60383 37.5963 2.25029 38.5909 3.08335 39.4165C3.91292 40.2547 4.91541 40.9016 6.02085 41.3123C7.52621 41.8801 9.12035 42.1764 10.7292 42.1873C13.4167 42.3332 14.2084 42.3332 21 42.3332C27.7917 42.3332 28.5834 42.3332 31.2709 42.1873C32.8797 42.1764 34.4738 41.8801 35.9792 41.3123C37.0846 40.9016 38.0871 40.2547 38.9167 39.4165C39.7498 38.5909 40.3962 37.5963 40.8125 36.4998C41.3798 34.9871 41.676 33.3862 41.6875 31.7707C41.8334 29.0832 41.8334 28.2915 41.8334 21.4998C41.8334 14.7082 41.8334 13.9165 41.6875 11.229ZM36.3959 27.8957C36.329 29.1813 36.0546 30.4477 35.5834 31.6457C35.1789 32.645 34.5777 33.5528 33.8153 34.3152C33.053 35.0775 32.1452 35.6787 31.1459 36.0832C29.9365 36.5282 28.6631 36.7744 27.375 36.8123C25.7292 36.8123 25.2917 36.8123 21 36.8123C16.7084 36.8123 16.2709 36.8123 14.625 36.8123C13.337 36.7744 12.0635 36.5282 10.8542 36.0832C9.82107 35.6993 8.8881 35.0868 8.12502 34.2915C7.37016 33.5441 6.7872 32.6412 6.41669 31.6457C5.96993 30.4376 5.73045 29.1627 5.70835 27.8748C5.70835 26.229 5.70835 25.7915 5.70835 21.4998C5.70835 17.2082 5.70835 16.7707 5.70835 15.1248C5.73045 13.837 5.96993 12.5621 6.41669 11.354C6.80061 10.3209 7.41309 9.38791 8.20835 8.62484C8.95905 7.87405 9.86099 7.2917 10.8542 6.9165C12.0635 6.47152 13.337 6.22527 14.625 6.18734C16.2709 6.18734 16.7084 6.18734 21 6.18734C25.2917 6.18734 25.7292 6.18734 27.375 6.18734C28.6631 6.22527 29.9365 6.47152 31.1459 6.9165C32.179 7.30042 33.1119 7.91291 33.875 8.70817C34.6299 9.45556 35.2128 10.3584 35.5834 11.354C36.0283 12.5634 36.2746 13.8368 36.3125 15.1248C36.3125 16.7707 36.3125 17.2082 36.3125 21.4998C36.3125 25.7915 36.4584 26.229 36.3959 27.8748V27.8957ZM33.0625 12.3957C32.8145 11.7227 32.4234 11.1116 31.9162 10.6044C31.4091 10.0973 30.798 9.70622 30.125 9.45817C29.201 9.13788 28.2278 8.98274 27.25 8.99984C25.625 8.99984 25.1667 8.99984 21 8.99984C16.8334 8.99984 16.375 8.99984 14.75 8.99984C13.7672 9.00944 12.7939 9.19283 11.875 9.5415C11.2124 9.77829 10.6077 10.1534 10.1012 10.6419C9.59476 11.1304 9.19806 11.7212 8.93752 12.3748C8.63497 13.3027 8.48716 14.274 8.50002 15.2498C8.50002 16.8748 8.50002 17.3332 8.50002 21.4998C8.50002 25.6665 8.50002 26.1248 8.50002 27.7498C8.52068 28.7315 8.70371 29.703 9.04169 30.6248C9.28974 31.2978 9.68082 31.9089 10.188 32.4161C10.6951 32.9232 11.3062 33.3143 11.9792 33.5623C12.8681 33.8892 13.8035 34.0721 14.75 34.104C16.375 34.104 16.8334 34.104 21 34.104C25.1667 34.104 25.625 34.104 27.25 34.104C28.2328 34.0944 29.2061 33.911 30.125 33.5623C30.798 33.3143 31.4091 32.9232 31.9162 32.4161C32.4234 31.9089 32.8145 31.2978 33.0625 30.6248C33.4112 29.7059 33.5946 28.7326 33.6042 27.7498C33.6042 26.1248 33.6042 25.6665 33.6042 21.4998C33.6042 17.3332 33.6042 16.8748 33.6042 15.2498C33.6048 14.2661 33.4211 13.2909 33.0625 12.3748V12.3957ZM21 29.4582C19.9559 29.4582 18.922 29.2522 17.9577 28.852C16.9933 28.4518 16.1173 27.8652 15.38 27.126C14.6426 26.3867 14.0584 25.5092 13.6607 24.5438C13.2631 23.5784 13.0598 22.544 13.0625 21.4998C13.0625 19.9249 13.5298 18.3855 14.4052 17.0763C15.2806 15.7671 16.5248 14.7471 17.9802 14.1453C19.4356 13.5436 21.0368 13.3872 22.5811 13.696C24.1255 14.0047 25.5435 14.7648 26.6556 15.8799C27.7678 16.9949 28.5241 18.4149 28.8288 19.9601C29.1335 21.5052 28.9729 23.106 28.3674 24.5598C27.7619 26.0137 26.7386 27.2551 25.4271 28.1271C24.1156 28.9991 22.5749 29.4623 21 29.4582ZM29.3334 15.104C28.8728 15.0553 28.4466 14.8378 28.1369 14.4935C27.8271 14.1493 27.6557 13.7025 27.6557 13.2394C27.6557 12.7763 27.8271 12.3296 28.1369 11.9853C28.4466 11.641 28.8728 11.4236 29.3334 11.3748C29.7939 11.4236 30.2201 11.641 30.5298 11.9853C30.8396 12.3296 31.011 12.7763 31.011 13.2394C31.011 13.7025 30.8396 14.1493 30.5298 14.4935C30.2201 14.8378 29.7939 15.0553 29.3334 15.104Z" fill="#151612"/>
</svg>
