<svg width="50" height="50" viewBox="0 0 50 50" fill="none" xmlns="http://www.w3.org/2000/svg">
<path d="M25 4.1665C20.5797 4.1665 16.3405 5.92245 13.2149 9.04806C10.0893 12.1737 8.33334 16.4129 8.33334 20.8332C8.33334 32.0832 23.0208 44.7915 23.6458 45.3332C24.0232 45.6559 24.5034 45.8333 25 45.8333C25.4966 45.8333 25.9768 45.6559 26.3542 45.3332C27.0833 44.7915 41.6667 32.0832 41.6667 20.8332C41.6667 16.4129 39.9107 12.1737 36.7851 9.04806C33.6595 5.92245 29.4203 4.1665 25 4.1665ZM25 40.9373C20.5625 36.7707 12.5 27.7915 12.5 20.8332C12.5 17.518 13.817 14.3385 16.1612 11.9943C18.5054 9.65013 21.6848 8.33317 25 8.33317C28.3152 8.33317 31.4946 9.65013 33.8388 11.9943C36.1831 14.3385 37.5 17.518 37.5 20.8332C37.5 27.7915 29.4375 36.7915 25 40.9373ZM25 12.4998C23.3518 12.4998 21.7407 12.9886 20.3703 13.9043C18.9998 14.8199 17.9317 16.1214 17.301 17.6441C16.6703 19.1669 16.5053 20.8424 16.8268 22.4589C17.1483 24.0754 17.942 25.5603 19.1075 26.7257C20.2729 27.8912 21.7577 28.6848 23.3743 29.0064C24.9908 29.3279 26.6663 29.1629 28.189 28.5322C29.7118 27.9014 31.0132 26.8333 31.9289 25.4629C32.8446 24.0925 33.3333 22.4813 33.3333 20.8332C33.3333 18.623 32.4554 16.5034 30.8926 14.9406C29.3298 13.3778 27.2101 12.4998 25 12.4998ZM25 24.9998C24.1759 24.9998 23.3703 24.7555 22.6851 24.2976C21.9999 23.8398 21.4659 23.189 21.1505 22.4277C20.8351 21.6663 20.7526 20.8285 20.9134 20.0203C21.0742 19.212 21.471 18.4696 22.0537 17.8869C22.6365 17.3042 23.3789 16.9073 24.1871 16.7466C24.9954 16.5858 25.8332 16.6683 26.5945 16.9837C27.3559 17.299 28.0066 17.8331 28.4645 18.5183C28.9223 19.2035 29.1667 20.0091 29.1667 20.8332C29.1667 21.9382 28.7277 22.998 27.9463 23.7794C27.1649 24.5608 26.1051 24.9998 25 24.9998Z" fill="#151612"/>
</svg>
