<svg width="50" height="50" viewBox="0 0 50 50" fill="none" xmlns="http://www.w3.org/2000/svg">
<path d="M36.0586 30.5913L32.4534 32.6223C32.0208 32.8659 31.5203 32.9611 31.0284 32.8936C30.5365 32.826 30.0803 32.5993 29.7293 32.2482L17.6965 20.2154C17.3456 19.8643 17.1191 19.408 17.0516 18.9162C16.984 18.4244 17.0791 17.924 17.3224 17.4913L19.3534 13.8861C19.719 13.2372 19.8622 12.4865 19.761 11.7487C19.6598 11.0108 19.3199 10.3264 18.7931 9.79988L13.3896 4.39643C13.0729 4.07957 12.6969 3.82822 12.283 3.65673C11.8692 3.48524 11.4256 3.39697 10.9776 3.39697C10.5296 3.39697 10.086 3.48524 9.6721 3.65673C9.25823 3.82822 8.88221 4.07957 8.56551 4.39643L6.11206 6.84815C4.67735 8.28283 3.76348 10.156 3.51574 12.1697C3.268 14.1835 3.70062 16.2223 4.74482 17.9619L5.97585 20.0137C12.2625 30.4911 21.1358 39.1775 31.7448 45.2395L31.9879 45.3792C35.6121 47.4499 40.0896 46.8464 42.9914 43.9464L45.5534 41.3844C45.8703 41.0677 46.1217 40.6916 46.2931 40.2778C46.4646 39.8639 46.5529 39.4203 46.5529 38.9723C46.5529 38.5243 46.4646 38.0807 46.2931 37.6668C46.1217 37.253 45.8703 36.8769 45.5534 36.5602L40.1465 31.1533C39.6201 30.6259 38.9355 30.2854 38.1972 30.1839C37.459 30.0824 36.7078 30.2255 36.0586 30.5913Z" fill="#151612"/>
</svg>
